<?xml version="1.0" encoding="UTF-8"?>
<svg id="Layer_2" data-name="Layer 2" xmlns="http://www.w3.org/2000/svg" viewBox="0 0 116.88 48.49">
  <defs>
    <style>
      .cls-1 {
        fill: #059669;
      }

      .cls-2 {
        fill: #18181b;
      }
    </style>
  </defs>
  <g id="Layer_1-2" data-name="Layer 1">
    <g>
      <path d="M35.29,11.65v25.2h-3.53v-17.28l-7.81,17.28h-3.02l-7.81-17.28v17.28h-3.53V11.65h3.53l9.32,20.12,9.32-20.12h3.53Z"/>
      <path d="M57.83,11.65v25.2h-3.53l-13.32-18.83v18.83h-3.53V11.65h3.53l13.32,18.86V11.65h3.53Z"/>
      <path d="M85.69,11.65v25.2h-3.53v-17.28l-7.81,17.28h-3.02l-7.81-17.28v17.28h-3.53V11.65h3.53l9.32,20.12,9.32-20.12h3.53Z"/>
      <path d="M101.96,33.43v3.42h-14.11V11.65h3.53v21.78h10.58Z"/>
      <path class="cls-1" d="M103.76,32.45h3.53v4.39h-3.53v-4.39Z"/>
    </g>
    <path class="cls-2" d="M116.88,48.49H0V0h116.88v48.49ZM4,44.49h108.88V4H4v40.49Z"/>
  </g>
</svg>