<?xml version="1.0" encoding="UTF-8"?>
<svg id="Layer_2" data-name="Layer 2" xmlns="http://www.w3.org/2000/svg" viewBox="0 0 73.94 73.94">
  <defs>
    <style>
      .cls-1 {
        fill: none;
        stroke: #18181b;
        stroke-miterlimit: 10;
        stroke-width: 4px;
      }

      .cls-2 {
        fill: #059669;
      }
    </style>
  </defs>
  <g id="Layer_1-2" data-name="Layer 1">
    <g>
      <g>
        <path d="M38.55,10.02v25.2h-3.53v-17.28l-7.81,17.28h-3.02l-7.81-17.28v17.28h-3.53V10.02h3.53l9.32,20.12,9.32-20.12h3.53Z"/>
        <path d="M61.09,10.02v25.2h-3.53l-13.32-18.83v18.83h-3.53V10.02h3.53l13.32,18.86V10.02h3.53Z"/>
      </g>
      <g>
        <path d="M38.59,38.73v25.2h-3.53v-17.28l-7.81,17.28h-3.02l-7.81-17.28v17.28h-3.53v-25.2h3.53l9.32,20.12,9.32-20.12h3.53Z"/>
        <path d="M54.86,60.51v3.42h-14.11v-25.2h3.53v21.78h10.58Z"/>
        <path class="cls-2" d="M56.66,59.53h3.53v4.39h-3.53v-4.39Z"/>
      </g>
    </g>
    <rect class="cls-1" x="2" y="2" width="69.94" height="69.94"/>
  </g>
</svg>